<svg width="64" height="64" viewBox="0 0 64 64" fill="none" xmlns="http://www.w3.org/2000/svg">
  <defs>
    <linearGradient id="wd" x1="0" y1="0" x2="64" y2="64" gradientUnits="userSpaceOnUse">
      <stop offset="0" stop-color="#F75A2C"/>
      <stop offset="1" stop-color="#D94010"/>
    </linearGradient>
  </defs>
  <rect width="64" height="64" rx="18" fill="url(#wd)"/>
  <!-- Volume2 (lucide) speaker + sound waves -->
  <g transform="translate(15 15.5) scale(1.42)" stroke="#fff" stroke-width="2"
     stroke-linecap="round" stroke-linejoin="round">
    <polygon points="11 5 6 9 2 9 2 15 6 15 11 19 11 5" fill="#fff"/>
    <path d="M15.54 8.46a5 5 0 0 1 0 7.07" fill="none"/>
    <path d="M19.07 4.93a5 5 0 0 1 0 14.14" fill="none"/>
  </g>
  <!-- Amber sparkle badge -->
  <path d="M49 8 L51 13 L56 15 L51 17 L49 22 L47 17 L42 15 L47 13 Z" fill="#FBBF24"/>
</svg>
